<svg width="17" height="17" viewBox="0 0 17 17" fill="none" xmlns="http://www.w3.org/2000/svg">
  <path
    d="M11.2857 8.57143C11.2857 9.98772 10.1306 11.1429 8.71429 11.1429C7.29799 11.1429 6.14286 9.98772 6.14286 8.57143C6.14286 7.15513 7.29799 6 8.71429 6C10.1306 6 11.2857 7.15513 11.2857 8.57143ZM12.6719 8.57143C12.6719 6.3817 10.904 4.61384 8.71429 4.61384C6.52455 4.61384 4.7567 6.3817 4.7567 8.57143C4.7567 10.7612 6.52455 12.529 8.71429 12.529C10.904 12.529 12.6719 10.7612 12.6719 8.57143ZM13.7567 4.45312C13.7567 3.94085 13.3449 3.52902 12.8326 3.52902C12.3203 3.52902 11.9085 3.94085 11.9085 4.45312C11.9085 4.9654 12.3203 5.37723 12.8326 5.37723C13.3449 5.37723 13.7567 4.9654 13.7567 4.45312ZM8.71429 2.2433C9.83929 2.2433 12.25 2.1529 13.2645 2.55469C13.6161 2.69531 13.8772 2.86607 14.1484 3.13728C14.4196 3.40848 14.5904 3.66964 14.731 4.0212C15.1328 5.03571 15.0424 7.44643 15.0424 8.57143C15.0424 9.69643 15.1328 12.1071 14.731 13.1217C14.5904 13.4732 14.4196 13.7344 14.1484 14.0056C13.8772 14.2768 13.6161 14.4475 13.2645 14.5882C12.25 14.99 9.83929 14.8996 8.71429 14.8996C7.58929 14.8996 5.17857 14.99 4.16406 14.5882C3.8125 14.4475 3.55134 14.2768 3.28013 14.0056C3.00893 13.7344 2.83817 13.4732 2.69754 13.1217C2.29576 12.1071 2.38616 9.69643 2.38616 8.57143C2.38616 7.44643 2.29576 5.03571 2.69754 4.0212C2.83817 3.66964 3.00893 3.40848 3.28013 3.13728C3.55134 2.86607 3.8125 2.69531 4.16406 2.55469C5.17857 2.1529 7.58929 2.2433 8.71429 2.2433ZM16.4286 8.57143C16.4286 7.5067 16.4386 6.45201 16.3783 5.38728C16.3181 4.15179 16.0368 3.05692 15.1328 2.1529C14.2288 1.24888 13.1339 0.967633 11.8984 0.907366C10.8337 0.847098 9.77902 0.857142 8.71429 0.857142C7.64955 0.857142 6.59487 0.847098 5.53013 0.907366C4.29464 0.967633 3.19978 1.24888 2.29576 2.1529C1.39174 3.05692 1.11049 4.15179 1.05022 5.38728C0.989955 6.45201 1 7.5067 1 8.57143C1 9.63616 0.989955 10.6908 1.05022 11.7556C1.11049 12.9911 1.39174 14.0859 2.29576 14.99C3.19978 15.894 4.29464 16.1752 5.53013 16.2355C6.59487 16.2958 7.64955 16.2857 8.71429 16.2857C9.77902 16.2857 10.8337 16.2958 11.8984 16.2355C13.1339 16.1752 14.2288 15.894 15.1328 14.99C16.0368 14.0859 16.3181 12.9911 16.3783 11.7556C16.4386 10.6908 16.4286 9.63616 16.4286 8.57143Z"
    fill="white" />
</svg>
  